<svg xmlns="http://www.w3.org/2000/svg" xmlns:xlink="http://www.w3.org/1999/xlink" width="1080" zoomAndPan="magnify" viewBox="0 0 810 809.999993" height="1080" preserveAspectRatio="xMidYMid meet" version="1.0"><defs><clipPath id="0e1c5f720d"><path d="M 71.675781 158.957031 L 735.769531 158.957031 L 735.769531 651.277344 L 71.675781 651.277344 Z M 71.675781 158.957031 " clip-rule="nonzero"/></clipPath><clipPath id="d6d4333f73"><path d="M 585.335938 457.90625 C 714.640625 457.90625 735.492188 353.9375 735.492188 313.429688 C 735.496094 273.285156 719.074219 158.957031 585.894531 158.957031 L 71.675781 158.957031 L 71.675781 275.140625 L 544.367188 275.140625 C 577.421875 275.140625 581.636719 303.464844 581.636719 313.429688 C 581.636719 323.484375 576.460938 351.722656 544.367188 351.722656 L 224.644531 351.902344 C 146.761719 351.902344 71.675781 402.671875 71.675781 495.71875 L 71.675781 651.039062 L 618.914062 651.039062 L 618.914062 534.859375 L 226.972656 534.859375 L 226.972656 505.988281 C 226.972656 496.878906 229.730469 487.96875 234.996094 480.535156 C 242.191406 470.371094 255.453125 459.292969 279.367188 457.90625 Z M 585.335938 457.90625 " clip-rule="nonzero"/></clipPath><clipPath id="eb6486722c"><path d="M 0.675781 0.957031 L 664.601562 0.957031 L 664.601562 493.121094 L 0.675781 493.121094 Z M 0.675781 0.957031 " clip-rule="nonzero"/></clipPath><clipPath id="a33fc4ce19"><path d="M 514.335938 299.90625 C 643.640625 299.90625 664.492188 195.9375 664.492188 155.429688 C 664.496094 115.285156 648.074219 0.957031 514.894531 0.957031 L 0.675781 0.957031 L 0.675781 117.140625 L 473.367188 117.140625 C 506.421875 117.140625 510.636719 145.464844 510.636719 155.429688 C 510.636719 165.484375 505.460938 193.722656 473.367188 193.722656 L 153.644531 193.902344 C 75.761719 193.902344 0.675781 244.671875 0.675781 337.71875 L 0.675781 493.039062 L 547.914062 493.039062 L 547.914062 376.859375 L 155.972656 376.859375 L 155.972656 347.988281 C 155.972656 338.878906 158.730469 329.96875 163.996094 322.535156 C 171.191406 312.371094 184.453125 301.292969 208.367188 299.90625 Z M 514.335938 299.90625 " clip-rule="nonzero"/></clipPath><clipPath id="a3c274eae9"><rect x="0" width="665" y="0" height="494"/></clipPath><clipPath id="4908df9ad2"><path d="M 395.628906 492.847656 L 738.605469 492.847656 L 738.605469 651.277344 L 395.628906 651.277344 Z M 395.628906 492.847656 " clip-rule="nonzero"/></clipPath><clipPath id="fabe0b028c"><path d="M 395.820312 493.125 L 581.6875 492.941406 L 738.324219 650.855469 L 552.460938 651.039062 Z M 395.820312 493.125 " clip-rule="nonzero"/></clipPath><clipPath id="8384071faf"><path d="M 0.761719 0.847656 L 343.480469 0.847656 L 343.480469 159.121094 L 0.761719 159.121094 Z M 0.761719 0.847656 " clip-rule="nonzero"/></clipPath><clipPath id="fa28b5e768"><path d="M 0.820312 1.125 L 186.6875 0.941406 L 343.324219 158.855469 L 157.460938 159.039062 Z M 0.820312 1.125 " clip-rule="nonzero"/></clipPath><clipPath id="6386752aef"><rect x="0" width="344" y="0" height="160"/></clipPath></defs><g clip-path="url(#0e1c5f720d)"><g clip-path="url(#d6d4333f73)"><g transform="matrix(1, 0, 0, 1, 71, 158)"><g clip-path="url(#a3c274eae9)"><g clip-path="url(#eb6486722c)"><g clip-path="url(#a33fc4ce19)"><rect x="-249.2" width="1166.4" fill="#ffffff" height="1166.39999" y="-336.199998" fill-opacity="1"/></g></g></g></g></g></g><g clip-path="url(#4908df9ad2)"><g clip-path="url(#fabe0b028c)"><g transform="matrix(1, 0, 0, 1, 395, 492)"><g clip-path="url(#6386752aef)"><g clip-path="url(#8384071faf)"><g clip-path="url(#fa28b5e768)"><rect x="-573.2" width="1166.4" fill="#284399" height="1166.39999" y="-670.199998" fill-opacity="1"/></g></g></g></g></g></g></svg>