<svg xmlns="http://www.w3.org/2000/svg" xmlns:xlink="http://www.w3.org/1999/xlink" width="660" zoomAndPan="magnify" viewBox="0 0 495 485.249994" height="647" preserveAspectRatio="xMidYMid meet" version="1.0"><defs><clipPath id="e3038d016b"><path d="M 0.382812 0 L 494.617188 0 L 494.617188 484.5 L 0.382812 484.5 Z M 0.382812 0 " clip-rule="nonzero"/></clipPath><clipPath id="9f02ebefcd"><path d="M 39.046875 92.511719 L 443 92.511719 L 443 392 L 39.046875 392 Z M 39.046875 92.511719 " clip-rule="nonzero"/></clipPath><clipPath id="a22cd0b0f0"><path d="M 351.355469 274.273438 C 429.972656 274.273438 442.652344 211.0625 442.652344 186.433594 C 442.652344 162.023438 432.667969 92.511719 351.695312 92.511719 L 39.046875 92.511719 L 39.046875 163.152344 L 326.445312 163.152344 C 346.542969 163.152344 349.105469 180.375 349.105469 186.433594 C 349.105469 192.546875 345.957031 209.714844 326.445312 209.714844 L 132.054688 209.824219 C 84.699219 209.824219 39.046875 240.691406 39.046875 297.265625 L 39.046875 391.703125 L 371.769531 391.703125 L 371.769531 321.0625 L 133.46875 321.0625 L 133.46875 303.507812 C 133.46875 297.972656 135.148438 292.550781 138.347656 288.03125 C 142.71875 281.855469 150.785156 275.117188 165.324219 274.273438 Z M 351.355469 274.273438 " clip-rule="nonzero"/></clipPath><clipPath id="13dbbe0735"><path d="M 0.046875 0.511719 L 403.738281 0.511719 L 403.738281 299.792969 L 0.046875 299.792969 Z M 0.046875 0.511719 " clip-rule="nonzero"/></clipPath><clipPath id="06d84e943b"><path d="M 312.355469 182.273438 C 390.972656 182.273438 403.652344 119.0625 403.652344 94.433594 C 403.652344 70.023438 393.667969 0.511719 312.695312 0.511719 L 0.046875 0.511719 L 0.046875 71.152344 L 287.445312 71.152344 C 307.542969 71.152344 310.105469 88.375 310.105469 94.433594 C 310.105469 100.546875 306.957031 117.714844 287.445312 117.714844 L 93.054688 117.824219 C 45.699219 117.824219 0.046875 148.691406 0.046875 205.265625 L 0.046875 299.703125 L 332.769531 299.703125 L 332.769531 229.0625 L 94.46875 229.0625 L 94.46875 211.507812 C 94.46875 205.972656 96.148438 200.550781 99.347656 196.03125 C 103.71875 189.855469 111.785156 183.117188 126.324219 182.273438 Z M 312.355469 182.273438 " clip-rule="nonzero"/></clipPath><clipPath id="28f1cfb8a2"><rect x="0" width="404" y="0" height="300"/></clipPath><clipPath id="47bf3ce059"><path d="M 247.433594 295.5625 L 455.613281 295.5625 L 455.613281 392.164062 L 247.433594 392.164062 Z M 247.433594 295.5625 " clip-rule="nonzero"/></clipPath></defs><g clip-path="url(#e3038d016b)"><path fill="#ffffff" d="M 0.382812 0 L 494.617188 0 L 494.617188 484.5 L 0.382812 484.5 Z M 0.382812 0 " fill-opacity="1" fill-rule="nonzero"/><path fill="#000000" d="M 0.382812 0 L 494.617188 0 L 494.617188 484.5 L 0.382812 484.5 Z M 0.382812 0 " fill-opacity="1" fill-rule="nonzero"/></g><g clip-path="url(#9f02ebefcd)"><g clip-path="url(#a22cd0b0f0)"><g transform="matrix(1, 0, 0, 1, 39, 92)"><g clip-path="url(#28f1cfb8a2)"><g clip-path="url(#13dbbe0735)"><g clip-path="url(#06d84e943b)"><path fill="#ffffff" d="M 0.046875 0.511719 L 403.652344 0.511719 L 403.652344 299.691406 L 0.046875 299.691406 Z M 0.046875 0.511719 " fill-opacity="1" fill-rule="nonzero"/></g></g></g></g></g></g><g clip-path="url(#47bf3ce059)"><path fill="#244399" d="M 247.4375 295.675781 L 360.289062 295.5625 L 455.394531 392.03125 L 342.542969 392.140625 Z M 247.4375 295.675781 " fill-opacity="1" fill-rule="nonzero"/></g></svg>